<svg width="48" height="48" viewBox="0 0 48 48" fill="none" xmlns="http://www.w3.org/2000/svg">
<circle r="24" transform="matrix(-1 0 0 1 24 24)" fill="#fff" fill-opacity="0.05"/>
<circle r="23.5" transform="matrix(-1 0 0 1 24 24)" stroke="white" stroke-opacity="0.5"/>
<path d="M16.6464 24.3536C16.4512 24.1583 16.4512 23.8417 16.6464 23.6464L19.8284 20.4645C20.0237 20.2692 20.3403 20.2692 20.5355 20.4645C20.7308 20.6597 20.7308 20.9763 20.5355 21.1716L17.7071 24L20.5355 26.8284C20.7308 27.0237 20.7308 27.3403 20.5355 27.5355C20.3403 27.7308 20.0237 27.7308 19.8284 27.5355L16.6464 24.3536ZM31 24.5H17V23.5H31V24.5Z" fill="#FCFCFC"/>
</svg>
